<?xml version="1.0" standalone="no"?>
<!DOCTYPE svg PUBLIC "-//W3C//DTD SVG 20010904//EN"
 "http://www.w3.org/TR/2001/REC-SVG-20010904/DTD/svg10.dtd">
<svg version="1.0" xmlns="http://www.w3.org/2000/svg"
 width="960.000000pt" height="720.000000pt" viewBox="0 0 960.000000 720.000000"
 preserveAspectRatio="xMidYMid meet">

<g transform="translate(0.000000,720.000000) scale(0.100000,-0.100000)"
fill="#000000" stroke="none">
<path d="M4440 5936 c-685 -155 -1251 -284 -1259 -287 -9 -3 144 -106 367
-248 210 -134 382 -247 382 -252 0 -4 -500 -797 -1111 -1761 -1106 -1746
-1110 -1753 -1088 -1768 56 -37 59 -42 49 -90 -19 -101 30 -219 118 -283 95
-69 856 -560 890 -574 48 -20 157 -20 205 1 21 8 56 29 76 45 l38 30 78 -50
c43 -28 81 -47 86 -42 4 4 94 146 201 314 l193 305 40 -18 c38 -17 152 -17
2315 -18 2182 0 2277 1 2315 19 52 23 103 74 126 126 17 37 19 76 19 509 0
455 -1 471 -21 512 -24 50 -76 99 -133 125 -39 18 -115 19 -1943 19 -1047 0
-1903 3 -1903 6 0 12 1013 1604 1020 1604 5 0 180 -110 390 -245 211 -135 384
-244 386 -242 3 3 -532 2403 -561 2520 -4 15 -12 26 -19 26 -6 -1 -571 -128
-1256 -283z m-27 -1746 c232 -156 439 -300 461 -320 51 -50 70 -119 52 -187
-12 -46 -179 -313 -195 -313 -8 0 -1138 744 -1155 761 -10 9 138 240 183 286
46 46 98 64 169 59 l64 -4 421 -282z m-261 -466 c321 -212 589 -389 596 -393
10 -6 -51 -107 -233 -387 -136 -208 -252 -383 -259 -387 -6 -4 -45 -6 -86 -4
l-75 3 -535 354 c-294 195 -536 355 -538 356 -3 2 540 843 545 844 1 0 264
-174 585 -386z m-618 -823 l509 -336 -144 -6 c-167 -7 -213 -22 -268 -84 -40
-46 -56 -82 -66 -149 -5 -35 -21 -71 -57 -124 -39 -58 -49 -79 -41 -91 18 -29
40 -23 64 16 l24 38 3 -239 c1 -131 0 -241 -2 -243 -3 -3 -1081 702 -1104 722
-7 6 554 842 563 837 6 -3 239 -156 519 -341z m4778 -453 c25 -15 57 -45 70
-65 l23 -38 0 -440 c0 -242 -3 -452 -7 -467 -10 -35 -53 -85 -92 -106 -29 -16
-176 -17 -2241 -20 -1215 -2 -2233 0 -2262 3 -62 7 -109 37 -137 85 -20 34
-21 49 -21 490 0 441 1 456 21 494 25 49 61 77 111 86 21 4 1039 7 2263 6
l2225 -1 47 -27z m-5303 -437 l551 -365 0 -75 0 -75 -242 -365 c-133 -201
-243 -367 -244 -369 -1 -2 -1177 769 -1192 783 -1 1 122 191 275 423 170 257
282 417 289 413 6 -3 260 -170 563 -370z m-572 -857 c312 -207 570 -377 571
-379 2 -2 -11 -11 -30 -21 -39 -21 -132 -23 -168 -4 -48 25 -865 559 -888 580
-34 32 -50 61 -62 114 -9 42 -7 86 5 86 2 0 259 -169 572 -376z"/>
<path d="M3424 3670 c-33 -13 -64 -59 -64 -96 0 -47 35 -84 88 -91 27 -4 42
-11 42 -20 0 -51 61 -103 120 -103 95 0 150 108 95 187 -22 32 -79 55 -119 48
-30 -6 -34 -4 -40 19 -11 43 -79 74 -122 56z m80 -63 c19 -26 19 -30 5 -55
-29 -53 -109 -35 -109 25 0 63 66 82 104 30z m157 -76 c77 -77 -19 -178 -105
-110 -37 29 -37 89 0 118 37 29 70 26 105 -8z"/>
<path d="M3974 3331 c-73 -34 -112 -130 -81 -203 28 -67 119 -112 191 -94 14
3 42 20 61 37 20 18 37 30 38 28 1 -2 20 -40 42 -84 29 -58 45 -80 59 -80 47
0 41 27 -39 193 -64 132 -85 166 -114 186 -50 35 -106 41 -157 17z m116 -68
c28 -16 50 -51 50 -79 0 -30 -30 -71 -59 -84 -37 -15 -71 -8 -108 24 -22 19
-28 33 -28 64 0 79 75 117 145 75z"/>
<path d="M4381 2968 c-99 -151 -104 -161 -86 -174 10 -8 22 -14 25 -14 14 0
212 309 205 319 -3 6 -14 15 -23 20 -14 7 -34 -18 -121 -151z"/>
<path d="M3150 2638 c-139 -71 -106 -274 48 -295 55 -7 85 2 126 38 l35 30 43
-83 c44 -85 68 -103 91 -67 8 13 -8 53 -70 180 -66 133 -88 168 -117 187 -52
35 -102 38 -156 10z m128 -73 c39 -32 47 -67 27 -109 -29 -61 -95 -71 -152
-22 -22 19 -28 33 -28 64 0 84 87 122 153 67z"/>
<path d="M4320 2442 c-99 -49 -66 -151 56 -173 75 -14 104 -59 64 -99 -33 -33
-120 -23 -143 16 -9 16 -33 18 -41 5 -10 -16 5 -40 41 -62 28 -17 45 -21 95
-17 51 4 65 9 85 32 51 60 12 147 -73 161 -64 10 -89 27 -89 60 0 59 83 70
137 18 21 -20 31 -24 40 -15 27 27 -53 92 -114 92 -13 0 -39 -8 -58 -18z"/>
<path d="M4580 2435 c-15 -18 -6 -45 13 -45 8 0 20 7 27 15 10 12 10 18 0 30
-16 19 -24 19 -40 0z"/>
<path d="M5285 2438 c-3 -8 -4 -83 -3 -168 3 -147 4 -155 23 -155 18 0 20 8
23 73 l3 72 99 0 99 0 3 -72 c3 -65 5 -73 23 -73 19 0 20 7 20 165 0 158 -1
165 -20 165 -18 0 -20 -8 -23 -72 l-3 -73 -99 0 -99 0 -3 72 c-2 60 -6 73 -21
76 -9 2 -19 -3 -22 -10z"/>
<path d="M5671 2431 c-13 -23 10 -47 34 -37 20 7 19 42 -1 50 -22 8 -22 8 -33
-13z"/>
<path d="M6310 2435 c0 -18 126 -305 140 -319 17 -17 33 10 99 162 65 152 71
175 44 170 -11 -2 -36 -46 -72 -131 -30 -70 -58 -127 -61 -127 -4 0 -32 59
-61 130 -40 99 -57 130 -71 130 -10 0 -18 -7 -18 -15z"/>
<path d="M6671 2432 c-8 -15 -7 -23 4 -32 21 -18 47 -4 43 22 -4 29 -34 35
-47 10z"/>
<path d="M7044 2436 c-9 -24 4 -48 23 -44 12 2 18 12 18 28 0 29 -32 41 -41
16z"/>
<path d="M4717 2424 c-4 -4 -7 -25 -7 -46 0 -31 -3 -38 -20 -38 -26 0 -26 -30
-1 -37 16 -4 19 -16 23 -80 3 -65 7 -78 27 -95 29 -23 74 -20 79 5 2 11 -3 17
-17 17 -31 0 -51 38 -51 97 0 49 1 52 27 55 39 4 43 36 6 40 -24 3 -29 8 -33
42 -5 38 -19 54 -33 40z"/>
<path d="M5817 2424 c-4 -4 -7 -23 -7 -42 0 -25 -5 -35 -20 -39 -11 -3 -20
-12 -20 -20 0 -8 9 -17 20 -20 18 -5 20 -14 20 -78 0 -68 2 -75 27 -95 30 -23
78 -24 78 0 0 8 -9 16 -20 18 -37 7 -45 23 -45 87 0 62 0 63 31 69 37 7 34 30
-4 34 -23 3 -26 8 -29 44 -3 39 -16 57 -31 42z"/>
<path d="M7187 2424 c-4 -4 -7 -25 -7 -46 0 -31 -3 -38 -20 -38 -12 0 -20 -7
-20 -16 0 -9 9 -18 20 -21 18 -5 20 -14 20 -75 0 -60 3 -72 25 -94 17 -17 34
-24 52 -22 37 4 40 26 7 39 -39 14 -44 25 -44 91 0 54 1 57 28 60 36 4 36 32
0 36 -24 3 -27 8 -30 44 -3 39 -16 57 -31 42z"/>
<path d="M4575 2338 c-3 -8 -4 -61 -3 -119 3 -96 4 -104 23 -104 19 0 20 7 20
115 0 101 -2 115 -18 118 -9 2 -19 -3 -22 -10z"/>
<path d="M4904 2316 c-30 -30 -34 -40 -34 -85 0 -69 36 -111 101 -118 55 -6
112 18 102 43 -3 10 -11 13 -22 8 -9 -4 -35 -9 -58 -12 -32 -3 -46 1 -62 17
-42 42 -29 51 69 51 90 0 90 0 90 25 0 34 -25 82 -49 95 -11 5 -38 10 -61 10
-34 0 -48 -6 -76 -34z m128 -23 c36 -32 23 -43 -52 -43 -74 0 -84 8 -53 42 20
23 80 24 105 1z"/>
<path d="M5670 2230 c0 -110 2 -121 18 -118 15 3 17 17 17 118 0 101 -2 115
-17 118 -16 3 -18 -8 -18 -118z"/>
<path d="M5960 2330 c0 -18 6 -20 60 -20 33 0 60 -3 60 -7 0 -3 -25 -40 -56
-81 -79 -105 -79 -106 34 -110 86 -3 92 -1 92 17 0 18 -8 20 -65 23 l-65 3 66
84 c35 47 63 89 61 95 -2 7 -41 12 -95 14 -87 3 -92 2 -92 -18z"/>
<path d="M6672 2233 c2 -97 6 -118 18 -118 12 0 15 19 15 115 0 102 -2 115
-18 118 -16 3 -17 -6 -15 -115z"/>
<path d="M6825 2338 c-26 -15 -35 -28 -35 -54 0 -29 28 -52 89 -70 44 -13 52
-18 49 -37 -2 -17 -11 -23 -40 -25 -22 -2 -47 3 -62 13 -27 18 -46 13 -46 -10
0 -22 54 -45 105 -45 77 0 121 64 75 110 -11 11 -32 22 -47 25 -43 9 -78 29
-78 45 0 18 72 27 88 11 16 -16 47 -13 47 3 0 38 -98 61 -145 34z"/>
<path d="M7044 2337 c-2 -7 -3 -60 -2 -118 3 -90 5 -104 21 -107 15 -3 17 8
17 117 0 102 -2 121 -15 121 -9 0 -18 -6 -21 -13z"/>
<path d="M7383 2330 c-43 -26 -61 -84 -44 -140 15 -51 59 -80 120 -80 36 0 49
6 77 34 30 30 34 40 34 86 0 46 -4 56 -34 86 -28 28 -41 34 -77 34 -26 0 -57
-8 -76 -20z m126 -46 c12 -15 21 -39 21 -54 0 -88 -120 -112 -149 -30 -12 35
0 77 26 98 29 22 79 15 102 -14z"/>
<path d="M7644 2337 c-2 -7 -3 -60 -2 -118 3 -90 5 -104 21 -107 15 -3 17 6
17 75 0 101 13 121 78 125 34 2 47 7 47 18 0 19 -66 26 -97 9 -16 -9 -23 -9
-26 0 -5 15 -31 14 -38 -2z"/>
<path d="M4230 2060 c0 -20 7 -20 1790 -20 1783 0 1790 0 1790 20 0 20 -7 20
-1790 20 -1783 0 -1790 0 -1790 -20z"/>
<path d="M5199 1907 c-59 -31 -89 -84 -89 -158 0 -98 69 -169 164 -169 73 0
147 49 101 66 -8 3 -24 -1 -37 -10 -32 -23 -100 -20 -132 5 -55 43 -70 111
-40 174 31 65 103 89 168 56 41 -21 56 -20 56 5 0 19 -75 53 -116 54 -17 0
-51 -10 -75 -23z"/>
<path d="M6357 1894 c-4 -4 -7 -25 -7 -46 0 -31 -3 -38 -20 -38 -12 0 -20 -7
-20 -16 0 -9 9 -18 20 -21 18 -5 20 -14 20 -75 0 -60 3 -72 25 -94 17 -17 34
-24 53 -22 32 4 45 38 13 38 -36 0 -51 27 -51 90 0 57 1 59 27 62 41 5 44 38
4 38 -28 0 -30 3 -33 42 -3 39 -16 57 -31 42z"/>
<path d="M5493 1810 c-53 -22 -78 -111 -48 -170 40 -76 160 -81 205 -8 38 62
13 156 -46 178 -31 12 -81 12 -111 0z m116 -56 c43 -54 11 -134 -54 -134 -50
0 -80 29 -80 80 0 32 6 47 24 61 35 28 85 25 110 -7z"/>
<path d="M5734 1805 c-4 -9 -4 -50 -2 -92 5 -70 8 -79 37 -105 34 -30 85 -37
123 -17 15 8 22 8 28 -1 5 -7 15 -10 24 -7 14 6 16 23 14 119 -3 98 -5 113
-20 116 -16 3 -18 -5 -18 -62 0 -67 -12 -115 -33 -128 -21 -14 -74 -8 -88 8
-8 10 -16 51 -19 98 -4 67 -8 81 -23 84 -9 2 -20 -4 -23 -13z"/>
<path d="M6044 1807 c-2 -7 -3 -60 -2 -118 3 -90 5 -104 21 -107 15 -3 17 6
17 77 0 91 17 121 68 121 54 0 66 -20 72 -112 4 -69 8 -83 23 -86 15 -3 17 6
17 88 0 88 -1 93 -29 121 -32 32 -84 39 -124 18 -16 -9 -22 -9 -25 0 -5 15
-31 14 -38 -2z"/>
<path d="M6559 1805 c-38 -21 -62 -77 -54 -125 9 -55 61 -100 115 -100 46 0
90 18 90 36 0 19 -20 28 -33 15 -16 -16 -79 -13 -105 5 -12 8 -22 24 -22 35 0
17 8 19 90 19 89 0 90 0 90 25 0 83 -93 132 -171 90z m115 -47 c9 -12 16 -26
16 -30 0 -5 -31 -8 -70 -8 -74 0 -84 8 -53 42 24 27 87 24 107 -4z"/>
<path d="M6790 1700 c0 -113 1 -120 20 -120 18 0 20 7 20 83 0 98 12 117 77
117 46 0 58 8 42 27 -14 16 -63 17 -92 2 -16 -9 -22 -9 -25 0 -2 6 -12 11 -23
11 -18 0 -19 -8 -19 -120z"/>
<path d="M5080 1530 c0 -20 7 -20 940 -20 933 0 940 0 940 20 0 20 -7 20 -940
20 -933 0 -940 0 -940 -20z"/>
<path d="M2581 1784 c-41 -22 -81 -81 -88 -131 -7 -55 30 -120 87 -150 70 -37
124 -30 182 25 15 14 30 24 32 21 2 -2 22 -41 45 -86 23 -46 47 -83 54 -83 17
0 37 20 37 38 0 7 -33 82 -73 166 -58 120 -82 159 -111 181 -47 35 -116 43
-165 19z m103 -58 c61 -25 81 -78 51 -135 -28 -55 -99 -59 -152 -9 -42 39 -24
126 31 148 29 12 32 12 70 -4z"/>
<path d="M2994 1421 c-103 -154 -107 -162 -88 -176 10 -8 22 -15 26 -15 8 0
206 292 210 310 2 7 -7 18 -19 27 -21 14 -24 11 -129 -146z"/>
</g>
</svg>
